 <svg version="1.0" xmlns="http://www.w3.org/2000/svg"  width="603.000000pt" height="600.000000pt" viewBox="0 0 603.000000 600.000000"  preserveAspectRatio="xMidYMid meet">  <g transform="translate(0.000000,600.000000) scale(0.100000,-0.100000)" fill="#009b47" stroke="none"> <path d="M2720 5950 c-129 -15 -233 -29 -280 -40 -92 -20 -226 -52 -255 -61 -122 -37 -256 -83 -349 -122 -155 -63 -541 -286 -608 -349 -7 -7 -44 -38 -83 -68 -165 -128 -358 -324 -496 -505 -220 -289 -395 -634 -488 -965 -12 -41 -26 -88 -30 -105 -8 -27 -30 -138 -62 -315 -27 -153 -27 -666 0 -815 36 -198 49 -264 60 -305 6 -19 18 -62 27 -95 29 -105 57 -190 66 -200 4 -5 8 -15 8 -23 0 -7 9 -34 21 -60 11 -26 24 -56 29 -67 82 -193 205 -409 329 -579 326 -446 779 -798 1281 -996 30 -12 62 -25 70 -29 12 -6 145 -49 285 -91 26 -8 74 -18 290 -60 49 -9 217 -25 381 -35 92 -5 448 18 545 35 163 30 229 46 424 100 57 16 210 73 219 81 6 5 16 9 23 9 26 0 269 123 398 202 235 142 358 239 556 437 135 135 300 326 330 382 6 13 15 26 18 29 10 8 51 69 51 75 0 4 11 21 24 38 60 80 166 292 258 517 17 43 66 193 78 240 61 240 67 272 100 540 13 110 13 396 -1 530 -39 392 -133 718 -304 1060 -48 96 -68 132 -95 175 -11 17 -23 37 -27 45 -8 16 -104 162 -113 170 -3 3 -18 23 -33 46 -15 22 -35 49 -45 60 -9 11 -35 42 -57 69 -137 170 -383 394 -594 540 -148 103 -395 235 -561 300 -104 42 -319 113 -380 126 -124 28 -196 42 -365 69 -88 14 -545 21 -645 10z m-1329 -1391 c19 -6 63 -21 99 -34 205 -73 614 -156 915 -185 266 -26 434 -30 1395 -30 956 0 1027 -1 1051 -18 41 -27 55 -45 68 -85 16 -48 7 -98 -24 -135 -25 -30 -47 -41 -180 -91 -166 -62 -271 -102 -290 -111 -23 -10 -67 -28 -145 -60 -30 -12 -77 -33 -105 -45 -27 -13 -72 -33 -100 -45 -387 -170 -915 -479 -1211 -708 -43 -34 -104 -80 -134 -103 -225 -174 -559 -501 -790 -775 -50 -59 -298 -391 -343 -460 -26 -39 -61 -84 -78 -100 -27 -26 -37 -29 -92 -29 -70 0 -103 18 -132 71 -24 44 -16 120 39 394 8 41 22 111 30 155 9 44 25 116 36 160 12 44 25 98 29 120 11 50 59 231 71 265 5 14 18 59 30 100 37 127 111 336 150 425 67 152 66 141 16 220 -166 264 -277 456 -367 635 -151 303 -162 342 -114 413 40 59 105 79 176 56z m3693 -820 c64 -54 73 -150 18 -207 -29 -30 -51 -40 -234 -108 -103 -38 -201 -76 -243 -94 -11 -4 -60 -25 -110 -45 -224 -92 -517 -235 -730 -355 -109 -61 -142 -81 -290 -178 -144 -95 -341 -237 -419 -302 -287 -242 -491 -445 -720 -720 -112 -135 -322 -435 -490 -698 -15 -23 -41 -52 -59 -62 -77 -47 -180 -6 -210 85 -15 43 -15 50 0 88 9 23 21 48 27 56 5 7 15 21 21 31 28 49 122 199 144 231 15 20 33 47 41 59 24 36 262 354 269 360 4 3 38 43 76 90 142 172 392 426 575 583 58 49 116 99 130 111 53 45 309 234 405 298 260 172 641 383 900 498 28 12 73 32 100 45 28 12 75 32 105 45 30 12 59 26 64 31 6 5 16 9 24 9 13 0 89 31 124 50 10 6 23 10 29 10 6 0 25 6 42 14 31 13 69 28 160 62 23 9 58 22 77 30 74 28 124 23 174 -17z"/> </g> </svg> 